<svg width="595" height="124" viewBox="0 0 595 124" fill="none" xmlns="http://www.w3.org/2000/svg">
<rect width="595" height="124" rx="12" fill="white"/>
<path d="M83.6932 41.3636C83.5483 39.9062 82.9048 38.7472 81.7628 37.8864C80.6207 37.0256 79.1847 36.5952 77.4545 36.5952C76.2358 36.5952 75.1619 36.804 74.233 37.2216C73.3125 37.6392 72.5881 38.2187 72.0597 38.9602C71.5398 39.6932 71.2798 40.5284 71.2798 41.4659C71.2798 42.1562 71.429 42.7614 71.7273 43.2812C72.0256 43.8011 72.4261 44.2486 72.929 44.6236C73.4403 44.9901 74.0028 45.3054 74.6165 45.5696C75.2386 45.8338 75.8651 46.0554 76.4957 46.2344L79.2571 47.027C80.0923 47.2571 80.9276 47.5511 81.7628 47.9091C82.598 48.267 83.3608 48.7187 84.0511 49.2642C84.75 49.8011 85.3082 50.4616 85.7259 51.2457C86.152 52.0213 86.3651 52.9545 86.3651 54.0455C86.3651 55.4432 86.0028 56.7003 85.2784 57.8168C84.554 58.9332 83.5142 59.8196 82.1591 60.4759C80.804 61.1236 79.1804 61.4474 77.2884 61.4474C75.5071 61.4474 73.9602 61.1534 72.6477 60.5653C71.3352 59.9687 70.304 59.1463 69.554 58.098C68.804 57.0497 68.3821 55.8352 68.2884 54.4545H70.7429C70.8281 55.4858 71.169 56.3594 71.7656 57.0753C72.3622 57.7912 73.1378 58.3366 74.0923 58.7116C75.0469 59.0781 76.1122 59.2614 77.2884 59.2614C78.5923 59.2614 79.7514 59.044 80.7656 58.6094C81.7884 58.1662 82.5895 57.5526 83.169 56.7685C83.7571 55.9759 84.0511 55.0554 84.0511 54.0071C84.0511 53.1207 83.821 52.3793 83.3608 51.7827C82.9006 51.1776 82.2571 50.6705 81.4304 50.2614C80.6122 49.8523 79.6619 49.4901 78.5795 49.1747L75.4474 48.2543C73.3935 47.6406 71.7997 46.7926 70.6662 45.7102C69.5327 44.6278 68.9659 43.2472 68.9659 41.5682C68.9659 40.1619 69.3409 38.9261 70.0909 37.8608C70.8494 36.7869 71.8722 35.9517 73.1591 35.3551C74.4545 34.75 75.9077 34.4474 77.5185 34.4474C79.1463 34.4474 80.5866 34.7457 81.8395 35.3423C83.0923 35.9389 84.0852 36.7614 84.8182 37.8097C85.5597 38.8494 85.956 40.0341 86.0071 41.3636H83.6932ZM98.2762 61H95.7706L105.295 34.8182H107.852L117.376 61H114.87L106.663 37.9247H106.484L98.2762 61ZM100.079 50.9645H113.067V53.1122H100.079V50.9645ZM127.983 34.8182H130.744L140.243 57.625H140.473L149.972 34.8182H152.733V61H150.483V39.8679H150.278L141.445 61H139.271L130.437 39.8679H130.233V61H127.983V34.8182ZM183.264 34.8182H185.655V52.1534C185.655 53.9347 185.237 55.5284 184.402 56.9347C183.567 58.3324 182.403 59.4361 180.912 60.2457C179.429 61.0469 177.703 61.4474 175.734 61.4474C173.774 61.4474 172.048 61.0426 170.557 60.233C169.065 59.4233 167.902 58.3196 167.067 56.9219C166.231 55.5241 165.814 53.9347 165.814 52.1534V34.8182H168.204V51.9872C168.204 53.3764 168.516 54.6165 169.138 55.7074C169.76 56.7898 170.633 57.642 171.758 58.2642C172.892 58.8864 174.217 59.1974 175.734 59.1974C177.251 59.1974 178.577 58.8864 179.71 58.2642C180.844 57.642 181.717 56.7898 182.331 55.7074C182.953 54.6165 183.264 53.3764 183.264 51.9872V34.8182ZM198.723 61V34.8182H213.91V36.9659H201.114V46.8224H213.105V48.9702H201.114V58.8523H214.166V61H198.723ZM226.218 61V34.8182H228.609V58.8523H241.086V61H226.218ZM268.833 61V34.8182H283.982V36.9659H271.224V46.8224H282.793V48.9702H271.224V61H268.833ZM296.047 61V34.8182H311.234V36.9659H298.437V46.8224H310.429V48.9702H298.437V58.8523H311.49V61H296.047ZM323.542 61V34.8182H331.992C333.85 34.8182 335.401 35.1548 336.645 35.8281C337.898 36.4929 338.84 37.4176 339.471 38.6023C340.11 39.7784 340.429 41.1293 340.429 42.6548C340.429 44.1804 340.11 45.527 339.471 46.6946C338.84 47.8622 337.902 48.7741 336.658 49.4304C335.414 50.0866 333.871 50.4148 332.03 50.4148H324.833V48.2287H331.966C333.33 48.2287 334.464 48.0028 335.367 47.5511C336.279 47.0994 336.956 46.456 337.4 45.6207C337.851 44.7855 338.077 43.7969 338.077 42.6548C338.077 41.5128 337.851 40.5156 337.4 39.6634C336.948 38.8026 336.266 38.1378 335.354 37.669C334.451 37.2003 333.309 36.9659 331.928 36.9659H325.932V61H323.542ZM335.086 49.1875L341.529 61H338.768L332.388 49.1875H335.086ZM372.763 34.8182V61H370.437L354.968 39.0753H354.763V61H352.373V34.8182H354.687L370.206 56.7685H370.411V34.8182H372.763ZM385.883 61H383.377L392.901 34.8182H395.458L404.982 61H402.476L394.269 37.9247H394.09L385.883 61ZM387.685 50.9645H400.674V53.1122H387.685V50.9645ZM393.118 32.0952L396.391 26.2912H399.088L395.164 32.0952H393.118ZM435.98 34.8182V61H433.653L418.184 39.0753H417.98V61H415.589V34.8182H417.903L433.423 56.7685H433.628V34.8182H435.98ZM456.731 61H449.061V34.8182H457.191C459.689 34.8182 461.823 35.3381 463.596 36.3778C465.377 37.4176 466.741 38.9091 467.687 40.8523C468.633 42.7955 469.106 45.1264 469.106 47.8452C469.106 50.5895 468.62 52.946 467.649 54.9148C466.686 56.875 465.279 58.3793 463.43 59.4276C461.589 60.4759 459.356 61 456.731 61ZM451.451 58.8523H456.591C458.841 58.8523 460.724 58.4091 462.241 57.5227C463.758 56.6364 464.896 55.3707 465.654 53.7259C466.413 52.081 466.792 50.1207 466.792 47.8452C466.784 45.5866 466.409 43.6435 465.667 42.0156C464.934 40.3878 463.843 39.1392 462.395 38.2699C460.954 37.4006 459.173 36.9659 457.051 36.9659H451.451V58.8523ZM481.021 61V34.8182H496.208V36.9659H483.411V46.8224H495.403V48.9702H483.411V58.8523H496.464V61H481.021ZM507.48 61V59.1974L522.016 36.9659H507.403V34.8182H524.866V36.6207L510.318 58.8523H524.994V61H507.48Z" fill="black"/>
<path d="M74.28 92C74.104 92 73.96 91.944 73.848 91.832C73.736 91.72 73.68 91.576 73.68 91.4V75.8C73.68 75.624 73.736 75.48 73.848 75.368C73.96 75.256 74.104 75.2 74.28 75.2H85.296C85.472 75.2 85.616 75.256 85.728 75.368C85.856 75.48 85.92 75.624 85.92 75.8V78.224C85.92 78.4 85.856 78.544 85.728 78.656C85.616 78.768 85.472 78.824 85.296 78.824H77.904V82.352H84.816C84.992 82.352 85.136 82.416 85.248 82.544C85.376 82.656 85.44 82.8 85.44 82.976V85.376C85.44 85.536 85.376 85.68 85.248 85.808C85.136 85.92 84.992 85.976 84.816 85.976H77.904V91.4C77.904 91.576 77.848 91.72 77.736 91.832C77.624 91.944 77.48 92 77.304 92H74.28ZM99.8445 92.24C98.4045 92.24 97.1405 92.008 96.0525 91.544C94.9805 91.064 94.1485 90.336 93.5565 89.36C92.9645 88.368 92.6685 87.112 92.6685 85.592V75.8C92.6685 75.624 92.7245 75.48 92.8365 75.368C92.9485 75.256 93.0925 75.2 93.2685 75.2H96.3645C96.5405 75.2 96.6845 75.256 96.7965 75.368C96.9085 75.48 96.9645 75.624 96.9645 75.8V85.568C96.9645 86.608 97.2125 87.392 97.7085 87.92C98.2205 88.432 98.9325 88.688 99.8445 88.688C100.741 88.688 101.437 88.432 101.933 87.92C102.445 87.392 102.701 86.608 102.701 85.568V75.8C102.701 75.624 102.757 75.48 102.869 75.368C102.997 75.256 103.141 75.2 103.301 75.2H106.421C106.581 75.2 106.717 75.256 106.829 75.368C106.957 75.48 107.021 75.624 107.021 75.8V85.592C107.021 87.112 106.725 88.368 106.132 89.36C105.54 90.336 104.708 91.064 103.637 91.544C102.565 92.008 101.301 92.24 99.8445 92.24ZM115.123 92C114.947 92 114.803 91.944 114.691 91.832C114.579 91.72 114.523 91.576 114.523 91.4V75.8C114.523 75.624 114.579 75.48 114.691 75.368C114.803 75.256 114.947 75.2 115.123 75.2H118.291C118.451 75.2 118.587 75.256 118.699 75.368C118.827 75.48 118.891 75.624 118.891 75.8V88.376H126.139C126.315 88.376 126.459 88.44 126.571 88.568C126.699 88.68 126.763 88.824 126.763 89V91.4C126.763 91.576 126.699 91.72 126.571 91.832C126.459 91.944 126.315 92 126.139 92H115.123ZM133.763 92C133.587 92 133.443 91.944 133.331 91.832C133.219 91.72 133.163 91.576 133.163 91.4V75.8C133.163 75.624 133.219 75.48 133.331 75.368C133.443 75.256 133.587 75.2 133.763 75.2H136.931C137.091 75.2 137.227 75.256 137.339 75.368C137.467 75.48 137.531 75.624 137.531 75.8V88.376H144.779C144.955 88.376 145.099 88.44 145.211 88.568C145.339 88.68 145.403 88.824 145.403 89V91.4C145.403 91.576 145.339 91.72 145.211 91.832C145.099 91.944 144.955 92 144.779 92H133.763ZM166.935 92.24C165.335 92.24 164.007 92.016 162.951 91.568C161.895 91.104 161.095 90.504 160.551 89.768C160.007 89.032 159.719 88.248 159.687 87.416C159.687 87.288 159.735 87.176 159.831 87.08C159.943 86.968 160.071 86.912 160.215 86.912H163.239C163.463 86.912 163.631 86.952 163.743 87.032C163.871 87.112 163.983 87.216 164.079 87.344C164.207 87.584 164.383 87.816 164.607 88.04C164.847 88.264 165.151 88.448 165.519 88.592C165.903 88.72 166.375 88.784 166.935 88.784C167.863 88.784 168.559 88.64 169.023 88.352C169.503 88.064 169.743 87.672 169.743 87.176C169.743 86.824 169.615 86.536 169.359 86.312C169.103 86.072 168.687 85.864 168.111 85.688C167.551 85.496 166.799 85.304 165.855 85.112C164.639 84.856 163.599 84.528 162.735 84.128C161.887 83.712 161.239 83.176 160.791 82.52C160.343 81.848 160.119 81.016 160.119 80.024C160.119 79.048 160.391 78.176 160.935 77.408C161.495 76.64 162.271 76.04 163.263 75.608C164.255 75.176 165.431 74.96 166.791 74.96C167.895 74.96 168.863 75.104 169.695 75.392C170.543 75.68 171.255 76.064 171.831 76.544C172.407 77.024 172.839 77.536 173.127 78.08C173.431 78.608 173.591 79.128 173.607 79.64C173.607 79.768 173.559 79.888 173.463 80C173.367 80.096 173.247 80.144 173.103 80.144H169.935C169.759 80.144 169.607 80.112 169.479 80.048C169.351 79.984 169.239 79.88 169.143 79.736C169.047 79.384 168.791 79.08 168.375 78.824C167.975 78.552 167.447 78.416 166.791 78.416C166.087 78.416 165.535 78.544 165.135 78.8C164.751 79.04 164.559 79.416 164.559 79.928C164.559 80.248 164.663 80.528 164.871 80.768C165.095 81.008 165.455 81.216 165.951 81.392C166.463 81.568 167.159 81.752 168.039 81.944C169.495 82.216 170.671 82.56 171.567 82.976C172.463 83.376 173.119 83.904 173.535 84.56C173.951 85.2 174.159 86.008 174.159 86.984C174.159 88.072 173.847 89.016 173.223 89.816C172.615 90.6 171.767 91.2 170.679 91.616C169.591 92.032 168.343 92.24 166.935 92.24ZM185.013 92C184.837 92 184.693 91.944 184.581 91.832C184.469 91.72 184.413 91.576 184.413 91.4V78.968H180.141C179.965 78.968 179.821 78.912 179.709 78.8C179.597 78.672 179.541 78.528 179.541 78.368V75.8C179.541 75.624 179.597 75.48 179.709 75.368C179.821 75.256 179.965 75.2 180.141 75.2H193.053C193.229 75.2 193.373 75.256 193.485 75.368C193.597 75.48 193.653 75.624 193.653 75.8V78.368C193.653 78.528 193.597 78.672 193.485 78.8C193.373 78.912 193.229 78.968 193.053 78.968H188.781V91.4C188.781 91.576 188.725 91.72 188.613 91.832C188.501 91.944 188.357 92 188.181 92H185.013ZM197.483 92C197.355 92 197.235 91.952 197.123 91.856C197.027 91.744 196.979 91.624 196.979 91.496C196.979 91.416 196.987 91.344 197.003 91.28L202.643 75.872C202.691 75.696 202.787 75.544 202.931 75.416C203.091 75.272 203.307 75.2 203.579 75.2H207.131C207.403 75.2 207.611 75.272 207.755 75.416C207.915 75.544 208.019 75.696 208.067 75.872L213.683 91.28C213.715 91.344 213.731 91.416 213.731 91.496C213.731 91.624 213.675 91.744 213.563 91.856C213.467 91.952 213.347 92 213.203 92H210.251C210.011 92 209.827 91.944 209.699 91.832C209.587 91.704 209.515 91.592 209.483 91.496L208.547 89.048H202.139L201.227 91.496C201.195 91.592 201.123 91.704 201.011 91.832C200.899 91.944 200.707 92 200.435 92H197.483ZM203.123 85.592H207.587L205.331 79.256L203.123 85.592ZM226.48 92.24C224.96 92.24 223.656 91.992 222.568 91.496C221.496 91 220.656 90.272 220.048 89.312C219.456 88.352 219.128 87.16 219.064 85.736C219.048 85.08 219.04 84.376 219.04 83.624C219.04 82.872 219.048 82.152 219.064 81.464C219.128 80.072 219.464 78.896 220.072 77.936C220.68 76.96 221.528 76.224 222.616 75.728C223.704 75.216 224.992 74.96 226.48 74.96C227.536 74.96 228.512 75.096 229.408 75.368C230.304 75.624 231.088 76.008 231.76 76.52C232.432 77.016 232.952 77.624 233.32 78.344C233.704 79.048 233.904 79.848 233.92 80.744C233.936 80.888 233.888 81.008 233.776 81.104C233.68 81.2 233.56 81.248 233.416 81.248H230.176C229.968 81.248 229.808 81.208 229.696 81.128C229.584 81.032 229.488 80.864 229.408 80.624C229.184 79.776 228.816 79.2 228.304 78.896C227.808 78.576 227.192 78.416 226.456 78.416C225.576 78.416 224.88 78.664 224.368 79.16C223.856 79.64 223.576 80.448 223.528 81.584C223.48 82.896 223.48 84.24 223.528 85.616C223.576 86.752 223.856 87.568 224.368 88.064C224.88 88.544 225.576 88.784 226.456 88.784C227.192 88.784 227.816 88.624 228.328 88.304C228.84 87.984 229.2 87.408 229.408 86.576C229.472 86.336 229.56 86.176 229.672 86.096C229.8 86 229.968 85.952 230.176 85.952H233.416C233.56 85.952 233.68 86 233.776 86.096C233.888 86.192 233.936 86.312 233.92 86.456C233.904 87.352 233.704 88.16 233.32 88.88C232.952 89.584 232.432 90.192 231.76 90.704C231.088 91.2 230.304 91.584 229.408 91.856C228.512 92.112 227.536 92.24 226.48 92.24ZM241.363 92C241.187 92 241.043 91.944 240.931 91.832C240.819 91.72 240.763 91.576 240.763 91.4V75.8C240.763 75.624 240.819 75.48 240.931 75.368C241.043 75.256 241.187 75.2 241.363 75.2H244.387C244.563 75.2 244.707 75.256 244.819 75.368C244.931 75.48 244.987 75.624 244.987 75.8V81.128L249.427 75.656C249.491 75.56 249.595 75.464 249.739 75.368C249.899 75.256 250.107 75.2 250.363 75.2H253.819C253.963 75.2 254.083 75.256 254.179 75.368C254.275 75.464 254.323 75.576 254.323 75.704C254.323 75.816 254.291 75.912 254.227 75.992L248.491 83.24L254.683 91.208C254.747 91.272 254.779 91.368 254.779 91.496C254.779 91.624 254.723 91.744 254.611 91.856C254.515 91.952 254.403 92 254.275 92H250.699C250.411 92 250.187 91.936 250.027 91.808C249.883 91.68 249.787 91.584 249.739 91.52L244.987 85.592V91.4C244.987 91.576 244.931 91.72 244.819 91.832C244.707 91.944 244.563 92 244.387 92H241.363ZM272.833 92C272.561 92 272.345 91.92 272.185 91.76C272.025 91.6 271.929 91.416 271.897 91.208L269.281 75.872C269.265 75.84 269.257 75.808 269.257 75.776C269.257 75.744 269.257 75.72 269.257 75.704C269.257 75.576 269.305 75.464 269.401 75.368C269.513 75.256 269.633 75.2 269.761 75.2H272.737C273.185 75.2 273.433 75.376 273.481 75.728L275.041 85.112L276.769 79.568C276.817 79.44 276.897 79.304 277.009 79.16C277.121 79 277.305 78.92 277.561 78.92H279.289C279.561 78.92 279.753 79 279.865 79.16C279.977 79.304 280.049 79.44 280.081 79.568L281.809 85.088L283.369 75.728C283.417 75.376 283.665 75.2 284.113 75.2H287.089C287.233 75.2 287.353 75.256 287.449 75.368C287.545 75.464 287.593 75.576 287.593 75.704C287.593 75.72 287.593 75.744 287.593 75.776C287.593 75.808 287.593 75.84 287.593 75.872L284.977 91.208C284.945 91.416 284.849 91.6 284.689 91.76C284.529 91.92 284.313 92 284.041 92H281.761C281.489 92 281.281 91.928 281.137 91.784C280.993 91.64 280.897 91.504 280.849 91.376L278.425 84.512L276.001 91.376C275.953 91.504 275.857 91.64 275.713 91.784C275.585 91.928 275.385 92 275.113 92H272.833ZM294.987 92C294.811 92 294.667 91.944 294.555 91.832C294.443 91.72 294.387 91.576 294.387 91.4V75.8C294.387 75.624 294.443 75.48 294.555 75.368C294.667 75.256 294.811 75.2 294.987 75.2H306.195C306.371 75.2 306.515 75.256 306.627 75.368C306.739 75.48 306.795 75.624 306.795 75.8V78.056C306.795 78.232 306.739 78.376 306.627 78.488C306.515 78.6 306.371 78.656 306.195 78.656H298.539V81.896H305.667C305.843 81.896 305.987 81.96 306.099 82.088C306.211 82.2 306.267 82.344 306.267 82.52V84.608C306.267 84.768 306.211 84.912 306.099 85.04C305.987 85.152 305.843 85.208 305.667 85.208H298.539V88.544H306.387C306.563 88.544 306.707 88.6 306.819 88.712C306.931 88.824 306.987 88.968 306.987 89.144V91.4C306.987 91.576 306.931 91.72 306.819 91.832C306.707 91.944 306.563 92 306.387 92H294.987ZM314.635 92C314.459 92 314.315 91.944 314.203 91.832C314.091 91.72 314.035 91.576 314.035 91.4V75.8C314.035 75.624 314.091 75.48 314.203 75.368C314.315 75.256 314.459 75.2 314.635 75.2H321.955C323.331 75.2 324.459 75.392 325.339 75.776C326.219 76.16 326.867 76.712 327.283 77.432C327.715 78.136 327.931 78.976 327.931 79.952C327.931 80.528 327.819 81.04 327.595 81.488C327.387 81.92 327.123 82.28 326.803 82.568C326.499 82.856 326.211 83.064 325.939 83.192C326.547 83.48 327.083 83.952 327.547 84.608C328.027 85.264 328.267 86.032 328.267 86.912C328.267 87.968 328.027 88.88 327.547 89.648C327.083 90.4 326.395 90.984 325.483 91.4C324.587 91.8 323.483 92 322.171 92H314.635ZM318.331 88.88H321.691C322.379 88.88 322.899 88.68 323.251 88.28C323.603 87.88 323.779 87.424 323.779 86.912C323.779 86.352 323.595 85.88 323.227 85.496C322.875 85.112 322.363 84.92 321.691 84.92H318.331V88.88ZM318.331 81.872H321.475C322.131 81.872 322.619 81.704 322.939 81.368C323.275 81.032 323.443 80.6 323.443 80.072C323.443 79.56 323.275 79.144 322.939 78.824C322.619 78.488 322.131 78.32 321.475 78.32H318.331V81.872ZM345.283 92C345.107 92 344.963 91.944 344.851 91.832C344.739 91.72 344.683 91.576 344.683 91.4V75.8C344.683 75.624 344.739 75.48 344.851 75.368C344.963 75.256 345.107 75.2 345.283 75.2H351.523C353.091 75.2 354.427 75.456 355.531 75.968C356.635 76.464 357.483 77.2 358.075 78.176C358.667 79.136 358.987 80.328 359.035 81.752C359.051 82.456 359.059 83.072 359.059 83.6C359.059 84.128 359.051 84.736 359.035 85.424C358.971 86.912 358.651 88.144 358.075 89.12C357.515 90.096 356.691 90.824 355.603 91.304C354.531 91.768 353.211 92 351.643 92H345.283ZM348.979 88.544H351.523C352.211 88.544 352.779 88.44 353.227 88.232C353.691 88.008 354.035 87.664 354.259 87.2C354.499 86.736 354.627 86.128 354.643 85.376C354.675 84.912 354.691 84.496 354.691 84.128C354.707 83.76 354.707 83.392 354.691 83.024C354.691 82.656 354.675 82.248 354.643 81.8C354.611 80.712 354.323 79.92 353.779 79.424C353.251 78.912 352.459 78.656 351.403 78.656H348.979V88.544ZM366.783 92C366.607 92 366.463 91.944 366.351 91.832C366.239 91.72 366.183 91.576 366.183 91.4V75.8C366.183 75.624 366.239 75.48 366.351 75.368C366.463 75.256 366.607 75.2 366.783 75.2H377.991C378.167 75.2 378.311 75.256 378.423 75.368C378.535 75.48 378.591 75.624 378.591 75.8V78.056C378.591 78.232 378.535 78.376 378.423 78.488C378.311 78.6 378.167 78.656 377.991 78.656H370.335V81.896H377.463C377.639 81.896 377.783 81.96 377.895 82.088C378.007 82.2 378.063 82.344 378.063 82.52V84.608C378.063 84.768 378.007 84.912 377.895 85.04C377.783 85.152 377.639 85.208 377.463 85.208H370.335V88.544H378.183C378.359 88.544 378.503 88.6 378.615 88.712C378.727 88.824 378.783 88.968 378.783 89.144V91.4C378.783 91.576 378.727 91.72 378.615 91.832C378.503 91.944 378.359 92 378.183 92H366.783ZM390.537 92C390.265 92 390.049 91.928 389.889 91.784C389.729 91.64 389.617 91.472 389.553 91.28L384.657 75.92C384.625 75.84 384.609 75.768 384.609 75.704C384.609 75.576 384.657 75.464 384.753 75.368C384.865 75.256 384.993 75.2 385.137 75.2H388.113C388.369 75.2 388.569 75.272 388.713 75.416C388.857 75.56 388.945 75.696 388.977 75.824L392.361 86.912L395.769 75.824C395.817 75.696 395.905 75.56 396.033 75.416C396.177 75.272 396.377 75.2 396.633 75.2H399.609C399.753 75.2 399.873 75.256 399.969 75.368C400.081 75.464 400.137 75.576 400.137 75.704C400.137 75.768 400.121 75.84 400.089 75.92L395.193 91.28C395.129 91.472 395.017 91.64 394.857 91.784C394.713 91.928 394.497 92 394.209 92H390.537ZM407.298 92C407.122 92 406.978 91.944 406.866 91.832C406.754 91.72 406.698 91.576 406.698 91.4V75.8C406.698 75.624 406.754 75.48 406.866 75.368C406.978 75.256 407.122 75.2 407.298 75.2H418.506C418.682 75.2 418.826 75.256 418.938 75.368C419.05 75.48 419.106 75.624 419.106 75.8V78.056C419.106 78.232 419.05 78.376 418.938 78.488C418.826 78.6 418.682 78.656 418.506 78.656H410.85V81.896H417.978C418.154 81.896 418.298 81.96 418.41 82.088C418.522 82.2 418.578 82.344 418.578 82.52V84.608C418.578 84.768 418.522 84.912 418.41 85.04C418.298 85.152 418.154 85.208 417.978 85.208H410.85V88.544H418.698C418.874 88.544 419.018 88.6 419.13 88.712C419.242 88.824 419.298 88.968 419.298 89.144V91.4C419.298 91.576 419.242 91.72 419.13 91.832C419.018 91.944 418.874 92 418.698 92H407.298ZM426.946 92C426.77 92 426.626 91.944 426.514 91.832C426.402 91.72 426.346 91.576 426.346 91.4V75.8C426.346 75.624 426.402 75.48 426.514 75.368C426.626 75.256 426.77 75.2 426.946 75.2H430.114C430.274 75.2 430.41 75.256 430.522 75.368C430.65 75.48 430.714 75.624 430.714 75.8V88.376H437.962C438.138 88.376 438.282 88.44 438.394 88.568C438.522 88.68 438.586 88.824 438.586 89V91.4C438.586 91.576 438.522 91.72 438.394 91.832C438.282 91.944 438.138 92 437.962 92H426.946ZM451.663 92.24C450.191 92.24 448.911 92 447.823 91.52C446.735 91.04 445.887 90.32 445.279 89.36C444.671 88.384 444.335 87.168 444.271 85.712C444.255 85.024 444.247 84.336 444.247 83.648C444.247 82.96 444.255 82.264 444.271 81.56C444.335 80.12 444.671 78.912 445.279 77.936C445.903 76.944 446.759 76.2 447.847 75.704C448.935 75.208 450.207 74.96 451.663 74.96C453.103 74.96 454.367 75.208 455.455 75.704C456.559 76.2 457.423 76.944 458.047 77.936C458.671 78.912 459.007 80.12 459.055 81.56C459.087 82.264 459.103 82.96 459.103 83.648C459.103 84.336 459.087 85.024 459.055 85.712C458.991 87.168 458.655 88.384 458.047 89.36C457.439 90.32 456.591 91.04 455.503 91.52C454.415 92 453.135 92.24 451.663 92.24ZM451.663 88.784C452.511 88.784 453.199 88.528 453.727 88.016C454.271 87.504 454.559 86.688 454.591 85.568C454.623 84.864 454.639 84.2 454.639 83.576C454.639 82.952 454.623 82.304 454.591 81.632C454.559 80.88 454.415 80.272 454.159 79.808C453.919 79.328 453.583 78.976 453.151 78.752C452.719 78.528 452.223 78.416 451.663 78.416C451.119 78.416 450.631 78.528 450.199 78.752C449.767 78.976 449.423 79.328 449.167 79.808C448.911 80.272 448.767 80.88 448.735 81.632C448.719 82.304 448.711 82.952 448.711 83.576C448.711 84.2 448.719 84.864 448.735 85.568C448.783 86.688 449.071 87.504 449.599 88.016C450.127 88.528 450.815 88.784 451.663 88.784ZM466.805 92C466.629 92 466.485 91.944 466.373 91.832C466.261 91.72 466.205 91.576 466.205 91.4V75.8C466.205 75.624 466.261 75.48 466.373 75.368C466.485 75.256 466.629 75.2 466.805 75.2H473.525C474.853 75.2 476.005 75.408 476.981 75.824C477.973 76.224 478.741 76.832 479.285 77.648C479.845 78.464 480.125 79.496 480.125 80.744C480.125 81.976 479.845 82.992 479.285 83.792C478.741 84.592 477.973 85.184 476.981 85.568C476.005 85.952 474.853 86.144 473.525 86.144H470.669V91.4C470.669 91.576 470.605 91.72 470.477 91.832C470.365 91.944 470.221 92 470.045 92H466.805ZM470.597 82.832H473.405C474.093 82.832 474.637 82.656 475.037 82.304C475.453 81.952 475.661 81.416 475.661 80.696C475.661 80.088 475.485 79.576 475.133 79.16C474.781 78.744 474.205 78.536 473.405 78.536H470.597V82.832ZM487.343 92C487.167 92 487.023 91.944 486.911 91.832C486.799 91.72 486.743 91.576 486.743 91.4V75.8C486.743 75.624 486.799 75.48 486.911 75.368C487.023 75.256 487.167 75.2 487.343 75.2H498.551C498.727 75.2 498.871 75.256 498.983 75.368C499.095 75.48 499.151 75.624 499.151 75.8V78.056C499.151 78.232 499.095 78.376 498.983 78.488C498.871 78.6 498.727 78.656 498.551 78.656H490.895V81.896H498.023C498.199 81.896 498.343 81.96 498.455 82.088C498.567 82.2 498.623 82.344 498.623 82.52V84.608C498.623 84.768 498.567 84.912 498.455 85.04C498.343 85.152 498.199 85.208 498.023 85.208H490.895V88.544H498.743C498.919 88.544 499.063 88.6 499.175 88.712C499.287 88.824 499.343 88.968 499.343 89.144V91.4C499.343 91.576 499.287 91.72 499.175 91.832C499.063 91.944 498.919 92 498.743 92H487.343ZM506.992 92C506.816 92 506.672 91.944 506.56 91.832C506.448 91.72 506.392 91.576 506.392 91.4V75.8C506.392 75.624 506.448 75.48 506.56 75.368C506.672 75.256 506.816 75.2 506.992 75.2H513.52C515.584 75.2 517.208 75.68 518.392 76.64C519.592 77.584 520.192 78.928 520.192 80.672C520.192 81.808 519.912 82.768 519.352 83.552C518.808 84.336 518.088 84.928 517.192 85.328L520.504 91.232C520.552 91.328 520.576 91.416 520.576 91.496C520.576 91.624 520.52 91.744 520.408 91.856C520.312 91.952 520.192 92 520.048 92H516.88C516.576 92 516.352 91.928 516.208 91.784C516.064 91.624 515.96 91.48 515.896 91.352L513.16 86.072H510.688V91.4C510.688 91.576 510.632 91.72 510.52 91.832C510.408 91.944 510.264 92 510.088 92H506.992ZM510.688 82.688H513.472C514.224 82.688 514.784 82.504 515.152 82.136C515.536 81.768 515.728 81.264 515.728 80.624C515.728 80 515.544 79.496 515.176 79.112C514.824 78.728 514.256 78.536 513.472 78.536H510.688V82.688Z" fill="black"/>
</svg>
